<mxfile host="Electron" agent="Mozilla/5.0 (Windows NT 10.0; Win64; x64) AppleWebKit/537.36 (KHTML, like Gecko) draw.io/27.0.9 Chrome/134.0.6998.205 Electron/35.4.0 Safari/537.36" version="27.0.9">
  <diagram id="DER-SIGOA" name="Diagrama Entidad-RelaciÃ³n SIGOA">
    <mxGraphModel dx="1426" dy="841" grid="1" gridSize="10" guides="1" tooltips="1" connect="1" arrows="1" fold="1" page="1" pageScale="1" pageWidth="850" pageHeight="1100" math="0" shadow="0">
      <root>
        <mxCell id="0" />
        <mxCell id="1" parent="0" />
        <mxCell id="45" style="edgeStyle=orthogonalEdgeStyle;rounded=0;orthogonalLoop=1;jettySize=auto;html=1;strokeColor=#000000;exitX=0.75;exitY=0;exitDx=0;exitDy=0;" parent="1" source="yTU0gZpCPmRmkTjFfYUS-54" target="11" edge="1">
          <mxGeometry relative="1" as="geometry" />
        </mxCell>
        <mxCell id="46" style="edgeStyle=orthogonalEdgeStyle;rounded=0;orthogonalLoop=1;jettySize=auto;html=1;strokeColor=#000000;exitX=0.5;exitY=0;exitDx=0;exitDy=0;" parent="1" source="aFJz8Sr7oRaLrZfLuK90-49" target="aFJz8Sr7oRaLrZfLuK90-75" edge="1">
          <mxGeometry relative="1" as="geometry" />
        </mxCell>
        <mxCell id="47" style="edgeStyle=orthogonalEdgeStyle;rounded=0;orthogonalLoop=1;jettySize=auto;html=1;strokeColor=#000000;entryX=0;entryY=0.5;entryDx=0;entryDy=0;exitX=1;exitY=0.75;exitDx=0;exitDy=0;" parent="1" source="aFJz8Sr7oRaLrZfLuK90-57" target="yTU0gZpCPmRmkTjFfYUS-56" edge="1">
          <mxGeometry relative="1" as="geometry" />
        </mxCell>
        <mxCell id="48" style="edgeStyle=orthogonalEdgeStyle;rounded=0;orthogonalLoop=1;jettySize=auto;html=1;strokeColor=#000000;" parent="1" source="aFJz8Sr7oRaLrZfLuK90-72" target="aFJz8Sr7oRaLrZfLuK90-78" edge="1">
          <mxGeometry relative="1" as="geometry">
            <mxPoint x="770" y="575" as="sourcePoint" />
            <Array as="points">
              <mxPoint x="700" y="480" />
              <mxPoint x="730" y="480" />
              <mxPoint x="730" y="131" />
            </Array>
          </mxGeometry>
        </mxCell>
        <mxCell id="yTU0gZpCPmRmkTjFfYUS-54" value="Vuelos" style="swimlane;fontStyle=0;childLayout=stackLayout;horizontal=1;startSize=30;horizontalStack=0;resizeParent=1;resizeParentMax=0;resizeLast=0;collapsible=1;marginBottom=0;whiteSpace=wrap;html=1;sketch=1;hachureGap=4;jiggle=2;curveFitting=1;fontFamily=Architects Daughter;fontSource=https%3A%2F%2Ffonts.googleapis.com%2Fcss%3Ffamily%3DArchitects%2BDaughter;fillColor=#e3c800;strokeColor=#B09500;fontColor=#000000;" parent="1" vertex="1">
          <mxGeometry x="310" y="440" width="140" height="150" as="geometry" />
        </mxCell>
        <mxCell id="yTU0gZpCPmRmkTjFfYUS-55" value="&lt;span style=&quot;font-family: Helvetica; text-wrap-mode: nowrap;&quot;&gt;Numero (PK)&lt;/span&gt;" style="text;strokeColor=none;fillColor=none;align=left;verticalAlign=middle;spacingLeft=4;spacingRight=4;overflow=hidden;points=[[0,0.5],[1,0.5]];portConstraint=eastwest;rotatable=0;whiteSpace=wrap;html=1;fontFamily=Architects Daughter;fontSource=https%3A%2F%2Ffonts.googleapis.com%2Fcss%3Ffamily%3DArchitects%2BDaughter;" parent="yTU0gZpCPmRmkTjFfYUS-54" vertex="1">
          <mxGeometry y="30" width="140" height="30" as="geometry" />
        </mxCell>
        <mxCell id="yTU0gZpCPmRmkTjFfYUS-56" value="&lt;span style=&quot;font-family: Helvetica; text-wrap-mode: nowrap;&quot;&gt;FechaHora&lt;/span&gt;" style="text;strokeColor=none;fillColor=none;align=left;verticalAlign=middle;spacingLeft=4;spacingRight=4;overflow=hidden;points=[[0,0.5],[1,0.5]];portConstraint=eastwest;rotatable=0;whiteSpace=wrap;html=1;fontFamily=Architects Daughter;fontSource=https%3A%2F%2Ffonts.googleapis.com%2Fcss%3Ffamily%3DArchitects%2BDaughter;" parent="yTU0gZpCPmRmkTjFfYUS-54" vertex="1">
          <mxGeometry y="60" width="140" height="30" as="geometry" />
        </mxCell>
        <mxCell id="yTU0gZpCPmRmkTjFfYUS-57" value="&lt;span style=&quot;font-family: Helvetica; text-wrap-mode: nowrap;&quot;&gt;Destino (FK)&lt;/span&gt;" style="text;strokeColor=none;fillColor=none;align=left;verticalAlign=middle;spacingLeft=4;spacingRight=4;overflow=hidden;points=[[0,0.5],[1,0.5]];portConstraint=eastwest;rotatable=0;whiteSpace=wrap;html=1;fontFamily=Architects Daughter;fontSource=https%3A%2F%2Ffonts.googleapis.com%2Fcss%3Ffamily%3DArchitects%2BDaughter;" parent="yTU0gZpCPmRmkTjFfYUS-54" vertex="1">
          <mxGeometry y="90" width="140" height="30" as="geometry" />
        </mxCell>
        <mxCell id="yTU0gZpCPmRmkTjFfYUS-59" value="&lt;span style=&quot;font-family: Helvetica; text-wrap-mode: nowrap;&quot;&gt;Aeronave (FK)&lt;/span&gt;" style="text;strokeColor=none;fillColor=none;align=left;verticalAlign=middle;spacingLeft=4;spacingRight=4;overflow=hidden;points=[[0,0.5],[1,0.5]];portConstraint=eastwest;rotatable=0;whiteSpace=wrap;html=1;fontFamily=Architects Daughter;fontSource=https%3A%2F%2Ffonts.googleapis.com%2Fcss%3Ffamily%3DArchitects%2BDaughter;" parent="yTU0gZpCPmRmkTjFfYUS-54" vertex="1">
          <mxGeometry y="120" width="140" height="30" as="geometry" />
        </mxCell>
        <mxCell id="yTU0gZpCPmRmkTjFfYUS-60" style="edgeStyle=orthogonalEdgeStyle;rounded=0;sketch=1;hachureGap=4;jiggle=2;curveFitting=1;orthogonalLoop=1;jettySize=auto;html=1;fontFamily=Architects Daughter;fontSource=https%3A%2F%2Ffonts.googleapis.com%2Fcss%3Ffamily%3DArchitects%2BDaughter;" parent="1" source="yTU0gZpCPmRmkTjFfYUS-54" target="aFJz8Sr7oRaLrZfLuK90-78" edge="1">
          <mxGeometry relative="1" as="geometry">
            <Array as="points">
              <mxPoint x="550" y="635" />
            </Array>
          </mxGeometry>
        </mxCell>
        <mxCell id="aFJz8Sr7oRaLrZfLuK90-49" value="Reservas" style="swimlane;fontStyle=0;childLayout=stackLayout;horizontal=1;startSize=30;horizontalStack=0;resizeParent=1;resizeParentMax=0;resizeLast=0;collapsible=1;marginBottom=0;whiteSpace=wrap;html=1;sketch=1;hachureGap=4;jiggle=2;curveFitting=1;fontFamily=Architects Daughter;fontSource=https%3A%2F%2Ffonts.googleapis.com%2Fcss%3Ffamily%3DArchitects%2BDaughter;fillColor=#b1ddf0;strokeColor=#10739e;" vertex="1" parent="1">
          <mxGeometry x="100" y="410" width="140" height="180" as="geometry" />
        </mxCell>
        <mxCell id="aFJz8Sr7oRaLrZfLuK90-54" value="CodReserva (PK)" style="text;html=1;strokeColor=none;fillColor=none;align=left;verticalAlign=top;spacingLeft=4;" vertex="1" parent="aFJz8Sr7oRaLrZfLuK90-49">
          <mxGeometry y="30" width="140" height="30" as="geometry" />
        </mxCell>
        <mxCell id="aFJz8Sr7oRaLrZfLuK90-58" value="EstadoReserva" style="text;html=1;strokeColor=none;fillColor=none;align=left;verticalAlign=top;spacingLeft=4;" vertex="1" parent="aFJz8Sr7oRaLrZfLuK90-49">
          <mxGeometry y="60" width="140" height="30" as="geometry" />
        </mxCell>
        <mxCell id="aFJz8Sr7oRaLrZfLuK90-57" value="FechaReserva" style="text;html=1;strokeColor=none;fillColor=none;align=left;verticalAlign=top;spacingLeft=4;" vertex="1" parent="aFJz8Sr7oRaLrZfLuK90-49">
          <mxGeometry y="90" width="140" height="30" as="geometry" />
        </mxCell>
        <mxCell id="aFJz8Sr7oRaLrZfLuK90-56" value="NroVuelo (FK)" style="text;html=1;strokeColor=none;fillColor=none;align=left;verticalAlign=top;spacingLeft=4;" vertex="1" parent="aFJz8Sr7oRaLrZfLuK90-49">
          <mxGeometry y="120" width="140" height="30" as="geometry" />
        </mxCell>
        <mxCell id="aFJz8Sr7oRaLrZfLuK90-55" value="DNIPasajero (FK)" style="text;html=1;strokeColor=none;fillColor=none;align=left;verticalAlign=top;spacingLeft=4;" vertex="1" parent="aFJz8Sr7oRaLrZfLuK90-49">
          <mxGeometry y="150" width="140" height="30" as="geometry" />
        </mxCell>
        <mxCell id="aFJz8Sr7oRaLrZfLuK90-59" value="&lt;span style=&quot;font-family: Helvetica;&quot;&gt;Cliente&lt;/span&gt;" style="swimlane;fontStyle=0;childLayout=stackLayout;horizontal=1;startSize=30;horizontalStack=0;resizeParent=1;resizeParentMax=0;resizeLast=0;collapsible=1;marginBottom=0;whiteSpace=wrap;html=1;sketch=1;hachureGap=4;jiggle=2;curveFitting=1;fontFamily=Architects Daughter;fontSource=https%3A%2F%2Ffonts.googleapis.com%2Fcss%3Ffamily%3DArchitects%2BDaughter;fillColor=#f8cecc;strokeColor=#b85450;" vertex="1" parent="1">
          <mxGeometry x="100" y="200" width="140" height="110" as="geometry" />
        </mxCell>
        <mxCell id="aFJz8Sr7oRaLrZfLuK90-73" value="DNI (PK)" style="text;html=1;strokeColor=none;fillColor=none;align=left;verticalAlign=top;spacingLeft=4;" vertex="1" parent="aFJz8Sr7oRaLrZfLuK90-59">
          <mxGeometry y="30" width="140" height="20" as="geometry" />
        </mxCell>
        <mxCell id="aFJz8Sr7oRaLrZfLuK90-74" value="Nombre" style="text;html=1;strokeColor=none;fillColor=none;align=left;verticalAlign=top;spacingLeft=4;" vertex="1" parent="aFJz8Sr7oRaLrZfLuK90-59">
          <mxGeometry y="50" width="140" height="20" as="geometry" />
        </mxCell>
        <mxCell id="aFJz8Sr7oRaLrZfLuK90-76" value="Categoria" style="text;html=1;strokeColor=none;fillColor=none;align=left;verticalAlign=top;spacingLeft=4;" vertex="1" parent="aFJz8Sr7oRaLrZfLuK90-59">
          <mxGeometry y="70" width="140" height="20" as="geometry" />
        </mxCell>
        <mxCell id="aFJz8Sr7oRaLrZfLuK90-75" value="Apellido" style="text;html=1;strokeColor=none;fillColor=none;align=left;verticalAlign=top;spacingLeft=4;" vertex="1" parent="aFJz8Sr7oRaLrZfLuK90-59">
          <mxGeometry y="90" width="140" height="20" as="geometry" />
        </mxCell>
        <mxCell id="aFJz8Sr7oRaLrZfLuK90-68" value="&lt;span style=&quot;font-family: Helvetica;&quot;&gt;Carga&lt;/span&gt;" style="swimlane;fontStyle=0;childLayout=stackLayout;horizontal=1;startSize=30;horizontalStack=0;resizeParent=1;resizeParentMax=0;resizeLast=0;collapsible=1;marginBottom=0;whiteSpace=wrap;html=1;sketch=1;hachureGap=4;jiggle=2;curveFitting=1;fontFamily=Architects Daughter;fontSource=https%3A%2F%2Ffonts.googleapis.com%2Fcss%3Ffamily%3DArchitects%2BDaughter;fillColor=#f8cecc;strokeColor=#b85450;" vertex="1" parent="1">
          <mxGeometry x="560" y="37.540000000000006" width="140" height="142" as="geometry" />
        </mxCell>
        <mxCell id="13" value="IdCarga (PK)" style="text;html=1;strokeColor=none;fillColor=none;align=left;verticalAlign=top;spacingLeft=4;" parent="aFJz8Sr7oRaLrZfLuK90-68" vertex="1">
          <mxGeometry y="30" width="140" height="28" as="geometry" />
        </mxCell>
        <mxCell id="14" value="Destino (FK)" style="text;html=1;strokeColor=none;fillColor=none;align=left;verticalAlign=top;spacingLeft=4;" parent="aFJz8Sr7oRaLrZfLuK90-68" vertex="1">
          <mxGeometry y="58" width="140" height="28" as="geometry" />
        </mxCell>
        <mxCell id="15" value="Peso" style="text;html=1;strokeColor=none;fillColor=none;align=left;verticalAlign=top;spacingLeft=4;" parent="aFJz8Sr7oRaLrZfLuK90-68" vertex="1">
          <mxGeometry y="86" width="140" height="28" as="geometry" />
        </mxCell>
        <mxCell id="16" value="Volumen" style="text;html=1;strokeColor=none;fillColor=none;align=left;verticalAlign=top;spacingLeft=4;" parent="aFJz8Sr7oRaLrZfLuK90-68" vertex="1">
          <mxGeometry y="114" width="140" height="28" as="geometry" />
        </mxCell>
        <mxCell id="aFJz8Sr7oRaLrZfLuK90-69" value="&lt;span style=&quot;font-family: Helvetica;&quot;&gt;Aeropuerto&lt;/span&gt;" style="swimlane;fontStyle=0;childLayout=stackLayout;horizontal=1;startSize=30;horizontalStack=0;resizeParent=1;resizeParentMax=0;resizeLast=0;collapsible=1;marginBottom=0;whiteSpace=wrap;html=1;sketch=1;hachureGap=4;jiggle=2;curveFitting=1;fontFamily=Architects Daughter;fontSource=https%3A%2F%2Ffonts.googleapis.com%2Fcss%3Ffamily%3DArchitects%2BDaughter;fillColor=#fff2cc;strokeColor=#d6b656;" vertex="1" parent="1">
          <mxGeometry x="330" y="40.44999999999999" width="140" height="139.09090909090907" as="geometry" />
        </mxCell>
        <mxCell id="8" value="CodIATA (PK)" style="text;html=1;strokeColor=none;fillColor=none;align=left;verticalAlign=top;spacingLeft=4;" parent="aFJz8Sr7oRaLrZfLuK90-69" vertex="1">
          <mxGeometry y="30" width="140" height="27.27272727272727" as="geometry" />
        </mxCell>
        <mxCell id="9" value="Provincia" style="text;html=1;strokeColor=none;fillColor=none;align=left;verticalAlign=top;spacingLeft=4;" parent="aFJz8Sr7oRaLrZfLuK90-69" vertex="1">
          <mxGeometry y="57.272727272727266" width="140" height="27.27272727272727" as="geometry" />
        </mxCell>
        <mxCell id="10" value="Ciudad" style="text;html=1;strokeColor=none;fillColor=none;align=left;verticalAlign=top;spacingLeft=4;" parent="aFJz8Sr7oRaLrZfLuK90-69" vertex="1">
          <mxGeometry y="84.54545454545453" width="140" height="27.27272727272727" as="geometry" />
        </mxCell>
        <mxCell id="11" value="NombreAeropuerto" style="text;html=1;strokeColor=none;fillColor=none;align=left;verticalAlign=top;spacingLeft=4;" parent="aFJz8Sr7oRaLrZfLuK90-69" vertex="1">
          <mxGeometry y="111.8181818181818" width="140" height="27.27272727272727" as="geometry" />
        </mxCell>
        <mxCell id="aFJz8Sr7oRaLrZfLuK90-71" value="&lt;span style=&quot;font-family: Helvetica;&quot;&gt;Edificio&lt;/span&gt;" style="swimlane;fontStyle=0;childLayout=stackLayout;horizontal=1;startSize=30;horizontalStack=0;resizeParent=1;resizeParentMax=0;resizeLast=0;collapsible=1;marginBottom=0;whiteSpace=wrap;html=1;sketch=1;hachureGap=4;jiggle=2;curveFitting=1;fontFamily=Architects Daughter;fontSource=https%3A%2F%2Ffonts.googleapis.com%2Fcss%3Ffamily%3DArchitects%2BDaughter;fillColor=#f8cecc;strokeColor=#b85450;" vertex="1" parent="1">
          <mxGeometry x="760" y="50" width="140" height="190" as="geometry" />
        </mxCell>
        <mxCell id="29" value="IdEdificio (PK)" style="text;html=1;strokeColor=none;fillColor=none;align=left;verticalAlign=top;spacingLeft=4;" parent="aFJz8Sr7oRaLrZfLuK90-71" vertex="1">
          <mxGeometry y="30" width="140" height="40" as="geometry" />
        </mxCell>
        <mxCell id="32" value="Altura" style="text;html=1;strokeColor=none;fillColor=none;align=left;verticalAlign=top;spacingLeft=4;" parent="aFJz8Sr7oRaLrZfLuK90-71" vertex="1">
          <mxGeometry y="70" width="140" height="40" as="geometry" />
        </mxCell>
        <mxCell id="31" value="Xf" style="text;html=1;strokeColor=none;fillColor=none;align=left;verticalAlign=top;spacingLeft=4;" parent="aFJz8Sr7oRaLrZfLuK90-71" vertex="1">
          <mxGeometry y="110" width="140" height="40" as="geometry" />
        </mxCell>
        <mxCell id="30" value="Xi" style="text;html=1;strokeColor=none;fillColor=none;align=left;verticalAlign=top;spacingLeft=4;" parent="aFJz8Sr7oRaLrZfLuK90-71" vertex="1">
          <mxGeometry y="150" width="140" height="40" as="geometry" />
        </mxCell>
        <mxCell id="aFJz8Sr7oRaLrZfLuK90-72" value="&lt;span style=&quot;font-family: Helvetica;&quot;&gt;ConfiguracionAsiento&lt;/span&gt;" style="swimlane;fontStyle=0;childLayout=stackLayout;horizontal=1;startSize=30;horizontalStack=0;resizeParent=1;resizeParentMax=0;resizeLast=0;collapsible=1;marginBottom=0;whiteSpace=wrap;html=1;sketch=1;hachureGap=4;jiggle=2;curveFitting=1;fontFamily=Architects Daughter;fontSource=https%3A%2F%2Ffonts.googleapis.com%2Fcss%3Ffamily%3DArchitects%2BDaughter;fillColor=#1ba1e2;strokeColor=#006EAF;fontColor=#ffffff;" vertex="1" parent="1">
          <mxGeometry x="650" y="280" width="180" height="219.0909090909091" as="geometry" />
        </mxCell>
        <mxCell id="23" value="IdConfig (PK)" style="text;html=1;strokeColor=none;fillColor=none;align=left;verticalAlign=top;spacingLeft=4;" parent="aFJz8Sr7oRaLrZfLuK90-72" vertex="1">
          <mxGeometry y="30" width="180" height="30" as="geometry" />
        </mxCell>
        <mxCell id="aFJz8Sr7oRaLrZfLuK90-80" value="IdConfig (PK)" style="text;html=1;strokeColor=none;fillColor=none;align=left;verticalAlign=top;spacingLeft=4;" vertex="1" parent="aFJz8Sr7oRaLrZfLuK90-72">
          <mxGeometry y="60" width="180" height="20" as="geometry" />
        </mxCell>
        <mxCell id="24" value="CodigoAeronave (FK)" style="text;html=1;strokeColor=none;fillColor=none;align=left;verticalAlign=top;spacingLeft=4;" parent="aFJz8Sr7oRaLrZfLuK90-72" vertex="1">
          <mxGeometry y="80" width="180" height="30" as="geometry" />
        </mxCell>
        <mxCell id="25" value="Zona" style="text;html=1;strokeColor=none;fillColor=none;align=left;verticalAlign=top;spacingLeft=4;" parent="aFJz8Sr7oRaLrZfLuK90-72" vertex="1">
          <mxGeometry y="110" width="180" height="30" as="geometry" />
        </mxCell>
        <mxCell id="27" value="AsientoFinal" style="text;html=1;strokeColor=none;fillColor=none;align=left;verticalAlign=top;spacingLeft=4;" parent="aFJz8Sr7oRaLrZfLuK90-72" vertex="1">
          <mxGeometry y="140" width="180" height="30" as="geometry" />
        </mxCell>
        <mxCell id="26" value="AsientoInicial" style="text;html=1;strokeColor=none;fillColor=none;align=left;verticalAlign=top;spacingLeft=4;" parent="aFJz8Sr7oRaLrZfLuK90-72" vertex="1">
          <mxGeometry y="170" width="180" height="49.09090909090909" as="geometry" />
        </mxCell>
        <mxCell id="aFJz8Sr7oRaLrZfLuK90-77" style="edgeStyle=orthogonalEdgeStyle;rounded=0;sketch=1;hachureGap=4;jiggle=2;curveFitting=1;orthogonalLoop=1;jettySize=auto;html=1;entryX=1;entryY=0.25;entryDx=0;entryDy=0;fontFamily=Architects Daughter;fontSource=https%3A%2F%2Ffonts.googleapis.com%2Fcss%3Ffamily%3DArchitects%2BDaughter;" edge="1" parent="1" source="14" target="9">
          <mxGeometry relative="1" as="geometry" />
        </mxCell>
        <mxCell id="aFJz8Sr7oRaLrZfLuK90-78" value="&lt;span style=&quot;font-family: Helvetica;&quot;&gt;Aeronave&lt;/span&gt;" style="swimlane;fontStyle=0;childLayout=stackLayout;horizontal=1;startSize=30;horizontalStack=0;resizeParent=1;resizeParentMax=0;resizeLast=0;collapsible=1;marginBottom=0;whiteSpace=wrap;html=1;sketch=1;hachureGap=4;jiggle=2;curveFitting=1;fontFamily=Architects Daughter;fontSource=https%3A%2F%2Ffonts.googleapis.com%2Fcss%3Ffamily%3DArchitects%2BDaughter;fillColor=#d5e8d4;strokeColor=#82b366;" vertex="1" parent="1">
          <mxGeometry x="470" y="310.90999999999997" width="140" height="157.27272727272725" as="geometry" />
        </mxCell>
        <mxCell id="6" value="VolumenCarga" style="text;html=1;strokeColor=none;fillColor=none;align=left;verticalAlign=top;spacingLeft=4;" parent="aFJz8Sr7oRaLrZfLuK90-78" vertex="1">
          <mxGeometry y="30" width="140" height="25.454545454545453" as="geometry" />
        </mxCell>
        <mxCell id="aFJz8Sr7oRaLrZfLuK90-79" value="VolumenCarga" style="text;html=1;strokeColor=none;fillColor=none;align=left;verticalAlign=top;spacingLeft=4;" vertex="1" parent="aFJz8Sr7oRaLrZfLuK90-78">
          <mxGeometry y="55.45454545454545" width="140" height="25.454545454545453" as="geometry" />
        </mxCell>
        <mxCell id="5" value="CapacidadCarga" style="text;html=1;strokeColor=none;fillColor=none;align=left;verticalAlign=top;spacingLeft=4;" parent="aFJz8Sr7oRaLrZfLuK90-78" vertex="1">
          <mxGeometry y="80.9090909090909" width="140" height="25.454545454545453" as="geometry" />
        </mxCell>
        <mxCell id="4" value="Asientos" style="text;html=1;strokeColor=none;fillColor=none;align=left;verticalAlign=top;spacingLeft=4;" parent="aFJz8Sr7oRaLrZfLuK90-78" vertex="1">
          <mxGeometry y="106.36363636363636" width="140" height="25.454545454545453" as="geometry" />
        </mxCell>
        <mxCell id="3" value="Matricula (PK)" style="text;html=1;strokeColor=none;fillColor=none;align=left;verticalAlign=top;spacingLeft=4;" parent="aFJz8Sr7oRaLrZfLuK90-78" vertex="1">
          <mxGeometry y="131.8181818181818" width="140" height="25.454545454545453" as="geometry" />
        </mxCell>
      </root>
    </mxGraphModel>
  </diagram>
</mxfile>
